<svg width="40" height="30" viewBox="0 0 102 69" fill="none" xmlns="http://www.w3.org/2000/svg" xmlns:xlink="http://www.w3.org/1999/xlink" >
<!-- <g transform="translate(51.2,51.2) scale(0.6,0.6)">
<g fill="#ffffff" fill-rule="nonzero" stroke="none" stroke-width="1" stroke-linecap="butt" stroke-linejoin="miter" stroke-miterlimit="10" stroke-dasharray="" stroke-dashoffset="0" font-family="none" font-weight="none" font-size="none" text-anchor="none" style="mix-blend-mode: normal">
<g transform="scale(2,2)"> -->
<path fill-rule="evenodd" clip-rule="evenodd" d="M14,1c-7.2,0 -13,5.8 -13,13v14v86c0,7.2 5.8,13 13,13h100c7.2,0 13,-5.8 13,-13v-100c0,-7.2 -5.8,-13 -13,-13zM14,7h100c3.9,0 7,3.1 7,7v15h-114v-15c0,-3.9 3.1,-7 7,-7zM18,15c-1.7,0 -3,1.3 -3,3c0,1.7 1.3,3 3,3h4c1.7,0 3,-1.3 3,-3c0,-1.7 -1.3,-3 -3,-3zM34,15c-1.7,0 -3,1.3 -3,3c0,1.7 1.3,3 3,3h4c1.7,0 3,-1.3 3,-3c0,-1.7 -1.3,-3 -3,-3zM7,35h114v79c0,3.9 -3.1,7 -7,7h-100c-3.9,0 -7,-3.1 -7,-7zM72.09961,52.80273c-1.18125,0.04688 -2.24922,0.79805 -2.69922,1.99805l-16.5,44.29883c-0.6,1.6 0.19883,3.30039 1.79883,3.90039c0.3,0.1 0.50078,0.19922 0.80078,0.19922c1.3,0.1 2.59961,-0.59844 3.09961,-1.89844l16.5,-44.40039c0.6,-1.6 -0.19883,-3.30039 -1.79883,-3.90039c-0.4,-0.15 -0.80742,-0.21289 -1.20117,-0.19727zM81.96289,63.9375c-0.7625,0.0375 -1.5125,0.36289 -2.0625,0.96289c-1.1,1.2 -1.00078,3.09922 0.19922,4.19922l9.59961,8.80078l-9.59961,8.79883c-1.2,1.2 -1.29922,3.10039 -0.19922,4.40039c0.6,0.7 1.39922,1 2.19922,1c0.7,0 1.4,-0.19883 2,-0.79883l12.09961,-11.10156c0.6,-0.6 1,-1.39922 1,-2.19922c0,-0.8 -0.4,-1.69922 -1,-2.19922l-12.09961,-11.10156c-0.6,-0.55 -1.37422,-0.79922 -2.13672,-0.76172zM46.03711,64.03711c-0.7625,-0.0375 -1.53672,0.21367 -2.13672,0.76367l-12.09961,11c-0.6,0.6 -1,1.39922 -1,2.19922c0,0.8 0.4,1.69922 1,2.19922l12.09961,11.10156c0.6,0.5 1.3,0.79883 2,0.79883c0.8,0 1.59922,-0.3 2.19922,-1c1.1,-1.2 1.00078,-3.09922 -0.19922,-4.19922l-9.59961,-8.90039l9.59961,-8.80078c1.2,-1.1 1.29922,-2.99922 0.19922,-4.19922c-0.55,-0.6 -1.3,-0.92539 -2.0625,-0.96289z" fill="url(#paint0_linear)"/>
<defs>
<linearGradient id="paint0_linear" x1="1.92667" y1="4.65138e-07" x2="19.7024" y2="29.0178" gradientUnits="userSpaceOnUse">
<stop offset="0.259336" stop-color="#FFDB6E"/>
<stop offset="1" stop-color="#FFBC5E"/>
</linearGradient>
</defs>

<!-- </g>
</g>
</g> -->
</svg>