<?xml version="1.0"?>
<svg xmlns="http://www.w3.org/2000/svg"  viewBox="0 0 80 80" width="150px" height="150px">    
<path fill-rule="evenodd" clip-rule="evenodd" d="M45,5h-5V3c0-1.103-0.897-2-2-2h-2c-1.103,0-2,0.897-2,2v2H22V3c0-1.103-0.897-2-2-2h-2c-1.103,0-2,0.897-2,2v2h-5 c-0.552,0-1,0.448-1,1v30H5c-0.552,0-1,0.448-1,1v5c0,3.309,2.691,6,6,6h30c3.309,0,6-2.691,6-6V6C46,5.448,45.552,5,45,5z M36,3h2 l-0.001,6H36V3z M18,3h2l-0.001,6H18V3z M17,28h12v2H17V28z M10,46c-2.206,0-4-1.794-4-4v-4h28v4c0,1.535,0.58,2.938,1.532,4H10z M39,24H17v-2h22V24z M39,18H17v-2h22V18z" fill="url(#paint0_linear)"/>
<defs>
<linearGradient id="paint0_linear" x1="1.92667" y1="4.65138e-07" x2="19.7024" y2="29.0178" gradientUnits="userSpaceOnUse">
<stop offset="0.259336" stop-color="#FFDB6E"/>
<stop offset="1" stop-color="#FFBC5E"/>
</linearGradient>
</defs>
</svg>