<svg fill="#FFFFFF" xmlns="http://www.w3.org/2000/svg"  viewBox="0 0 50 50" width="50px" height="50px"><path d="M 28.992188 8 C 23.873188 8 19.388844 10.76825 17.214844 15.15625 C 16.078844 14.40325 14.747469 14 13.355469 14 C 9.7104688 14 6.6083281 17.027891 6.3613281 20.712891 C 1.5043281 22.560891 -1.628375 28.943297 0.890625 34.404297 C 2.498625 37.888297 6.1229375 40 9.9609375 40 L 32 40 L 32 41 L 32 45 C 32 47.944 35.701 50 41 50 C 46.299 50 50 47.944 50 45 L 50 41 L 50 37 L 50 33 L 50 32.994141 C 49.997 32.424141 49.959594 29.289281 49.558594 28.363281 C 48.478594 25.028281 45.510141 22.466688 41.994141 22.054688 C 42.000141 21.741688 42 21.425391 42 21.150391 C 42 13.899391 36.164187 8 28.992188 8 z M 41 30 C 45.382 30 48 31.525 48 33 C 48 34.475 45.382 36 41 36 C 36.618 36 34 34.475 34 33 C 34 31.525 36.618 30 41 30 z M 34 36.287109 C 35.597 37.360109 38.049 38 41 38 C 43.951 38 46.403 37.360109 48 36.287109 L 48 37 C 48 37.631546 47.555669 38.320593 46.361328 38.941406 C 45.166987 39.562219 43.307754 40 41 40 C 38.692246 40 36.833013 39.562219 35.638672 38.941406 C 34.444331 38.320593 34 37.631546 34 37 L 34 36.287109 z M 34 40.283203 C 34.226833 40.438365 34.463816 40.585299 34.716797 40.716797 C 36.307206 41.543484 38.446754 42 41 42 C 43.553246 42 45.692794 41.543484 47.283203 40.716797 C 47.536184 40.585299 47.773167 40.438365 48 40.283203 L 48 41 C 48 41.631546 47.555669 42.320593 46.361328 42.941406 C 45.166987 43.562219 43.307754 44 41 44 C 38.692246 44 36.833013 43.562219 35.638672 42.941406 C 34.444331 42.320593 34 41.631546 34 41 L 34 40.283203 z M 34 44.283203 C 34.226833 44.438365 34.463816 44.585299 34.716797 44.716797 C 36.307206 45.543484 38.446754 46 41 46 C 43.553246 46 45.692794 45.543484 47.283203 44.716797 C 47.536184 44.585299 47.773167 44.438365 48 44.283203 L 48 45 C 48 46.475 45.382 48 41 48 C 36.618 48 34 46.475 34 45 L 34 44.283203 z"/></svg>