<svg width="400" height="400" viewBox="0 0 70 65" fill="none" xmlns="http://www.w3.org/2000/svg">
<path fill-rule="evenodd" clip-rule="evenodd" d="M 26.390625 3.2207031 C 17.850586 3.2207031 3.4003906 4.4291992 3.4003906 8.9394531 C 3.4003906 13.051758 3.4707031 -7.2856445 3.4707031 56.060547 C 3.4707031 60.530273 18.470459 61.710938 26.390625 61.710938 C 29.300537 61.710938 33.17041 61.550781 36.890625 61.130859 C 40.000488 64.600586 44.530518 66.779297 49.560547 66.779297 C 58.970459 66.779297 66.599609 59.150391 66.599609 49.740234 C 66.599609 40.330078 58.970459 32.699219 49.560547 32.699219 C 49.480469 32.699219 49.390625 32.700684 49.310547 32.710938 C 49.310547 1.2368164 49.378906 10.982422 49.378906 8.9394531 C 49.378906 4.4291992 34.930664 3.2207031 26.390625 3.2207031 z M 5.4707031 11.570312 C 9.7707519 13.950195 19.830566 14.660156 26.390625 14.660156 C 32.95044 14.660156 43.010498 13.950195 47.310547 11.570312 L 47.310547 25.519531 C 42.762695 27.924316 31.523193 28.380859 26.390625 28.380859 C 21.434082 28.380859 9.7182617 27.89209 5.4707031 25.519531 L 5.4707031 11.570312 z M 34.080078 19.710938 C 32.890137 19.710938 31.929687 20.669434 31.929688 21.859375 C 31.929688 23.049316 32.890137 24.009766 34.080078 24.009766 C 35.26001 24.009766 36.220703 23.049316 36.220703 21.859375 C 36.220703 20.669434 35.26001 19.710938 34.080078 19.710938 z M 41.330078 19.710938 C 40.140137 19.710938 39.179687 20.669434 39.179688 21.859375 C 39.179688 23.049316 40.140137 24.009766 41.330078 24.009766 C 42.51001 24.009766 43.470703 23.049316 43.470703 21.859375 C 43.470703 20.669434 42.51001 19.710938 41.330078 19.710938 z M 10.0625 20.177734 C 9.6800385 20.252281 9.3596192 20.544189 9.2695312 20.949219 C 9.149414 21.489258 9.5009765 22.020996 10.041016 22.140625 C 13.490967 22.890625 17.919678 23.380371 22.839844 23.560547 L 22.878906 23.560547 C 23.418945 23.560547 23.859131 23.139648 23.878906 22.599609 C 23.898926 22.039551 23.469971 21.580078 22.919922 21.560547 C 18.180176 21.390137 13.749023 20.899902 10.458984 20.179688 C 10.323975 20.152222 10.189987 20.152885 10.0625 20.177734 z M 5.4707031 27.720703 C 10.813232 29.859863 20.644531 30.390625 26.390625 30.390625 C 32.22998 30.390625 41.852051 29.874512 47.310547 27.720703 L 47.310547 32.859375 C 40.930664 33.689453 35.64917 38.069336 33.529297 43.949219 C 33.216064 44.00293 29.188232 44.179688 26.390625 44.179688 C 21.385254 44.179688 9.7155761 43.635742 5.4707031 41.320312 L 5.4707031 41.310547 L 5.4707031 27.720703 z M 33.480469 35.640625 C 32.290527 35.640625 31.330078 36.599121 31.330078 37.789062 C 31.330078 38.969238 32.290527 39.939453 33.480469 39.939453 C 34.660645 39.939453 35.628906 38.969238 35.628906 37.789062 C 35.628906 36.599121 34.660644 35.640625 33.480469 35.640625 z M 9.4628906 36.103516 C 9.0803604 36.17662 8.7600097 36.47583 8.6699219 36.880859 C 8.5600586 37.420898 8.8994141 37.950195 9.4394531 38.060547 C 12.889648 38.810547 17.320068 39.300293 22.25 39.490234 L 22.279297 39.490234 C 22.819336 39.490234 23.259277 39.05957 23.279297 38.519531 C 23.299316 37.969238 22.870361 37.510254 22.320312 37.490234 C 17.580322 37.310547 13.159424 36.819336 9.859375 36.109375 C 9.7243652 36.079346 9.5904007 36.079147 9.4628906 36.103516 z M 49.560547 37.279297 C 51.310547 37.279297 52.870605 38.570801 53.980469 40.720703 C 57.53418 39.497559 61.041016 39.898437 61.041016 43.269531 C 61.041016 45.05957 59.88916 47.350098 57.878906 49.740234 C 60.000488 52.262695 62.523193 56.507324 59.980469 58.609375 C 58.458008 59.882324 55.862305 59.407715 53.980469 58.759766 C 52.870605 60.909668 51.310547 62.199219 49.560547 62.199219 C 47.568848 62.199219 46.015137 60.512695 45.140625 58.759766 C 43.163574 59.43457 40.80957 59.864746 39.140625 58.609375 C 36.789795 56.666992 38.812012 52.797852 40.75 50.359375 C 40.899902 50.15918 41.070068 49.950195 41.25 49.740234 C 39.138184 47.226074 36.625977 42.947266 39.140625 40.869141 C 40.460449 39.769531 42.660645 39.870605 45.140625 40.720703 C 46.067139 38.943359 47.554199 37.279297 49.560547 37.279297 z M 49.560547 39.279297 C 48.446533 39.279297 47.572021 40.503906 47.009766 41.460938 L 47.009766 41.470703 C 47.998779 41.898926 49.219482 42.60498 49.570312 42.800781 C 50.420166 42.300781 51.269287 41.850586 52.109375 41.470703 C 51.349365 40.070801 50.430664 39.279297 49.560547 39.279297 z M 41.775391 42.060547 C 41.219794 42.059563 40.720215 42.154541 40.419922 42.410156 C 39.195557 43.375977 41.480225 46.87793 42.609375 48.25 C 42.849365 48 43.099365 47.749512 43.359375 47.509766 C 43.541748 45.398926 44.004639 43.493652 44.359375 42.560547 C 43.782593 42.329834 42.701385 42.062187 41.775391 42.060547 z M 57.519531 42.060547 C 56.655914 42.034668 55.585327 42.293945 54.759766 42.560547 C 55.259766 43.990234 55.599854 45.660156 55.759766 47.5 C 56.019775 47.740234 56.279541 47.990234 56.519531 48.240234 C 58.229492 46.140137 59.039062 44.339356 59.039062 43.269531 C 59.039062 42.396484 58.383148 42.086426 57.519531 42.060547 z M 46.240234 43.300781 C 46.032227 43.80957 45.772461 44.902344 45.650391 45.5 C 46.276611 45.001953 46.967773 44.479004 47.669922 44.009766 C 47.252686 43.766602 46.344482 43.353027 46.240234 43.300781 z M 52.878906 43.300781 C 52.418945 43.500488 51.939209 43.740234 51.449219 44 C 52.139404 44.470215 52.820801 44.970215 53.470703 45.490234 C 53.310791 44.700195 53.119141 43.960937 52.878906 43.300781 z M 5.4707031 43.509766 C 10.724854 45.658203 20.734863 46.179687 26.390625 46.179688 C 28.723145 46.179688 30.661621 46.119141 32.871094 45.990234 L 32.939453 45.990234 C 32.659668 47.200195 32.519531 48.450195 32.519531 49.740234 C 32.519531 53.280273 33.599609 56.569336 35.439453 59.289062 C 32.8396 59.549316 29.830566 59.710937 26.390625 59.710938 C 12.590576 59.710938 5.4707031 57.150391 5.4707031 56.060547 L 5.4707031 43.509766 z M 49.560547 45.130859 C 48.495117 45.793457 46.721924 47.115723 45.310547 48.410156 C 45.256836 49.180176 45.256836 50.299805 45.310547 51.070312 C 47.490478 53.069824 49.38501 54.217773 49.560547 54.349609 C 51.139893 53.323242 52.608398 52.172363 53.810547 51.070312 C 53.864258 50.300293 53.864258 49.180664 53.810547 48.410156 C 52.601318 47.301758 51.081543 46.109375 49.560547 45.130859 z M 49.791016 47.640625 C 50.920898 47.640625 51.839844 48.55957 51.839844 49.689453 C 51.839844 50.829102 50.920898 51.75 49.791016 51.75 C 48.639404 51.75 47.740234 50.812988 47.740234 49.689453 C 47.740234 48.575195 48.640625 47.640625 49.791016 47.640625 z M 9.4628906 50.822266 C 9.0803604 50.892693 8.7600097 51.184814 8.6699219 51.589844 C 8.5600585 52.129883 8.899414 52.669434 9.4394531 52.779297 C 12.889648 53.529297 17.320068 54.019531 22.25 54.199219 L 22.279297 54.199219 C 22.819336 54.199219 23.259277 53.780273 23.279297 53.240234 C 23.299316 52.69043 22.870361 52.229492 22.320312 52.199219 C 17.580322 52.029297 13.159424 51.540039 9.859375 50.830078 C 9.7243652 50.800171 9.5904007 50.79879 9.4628906 50.822266 z M 42.609375 51.230469 C 42.579346 51.260254 42.549316 51.300293 42.529297 51.330078 C 41.449707 52.668945 39.209228 56.030762 40.419922 57.070312 C 41.01001 57.560547 42.439209 57.539551 44.359375 56.919922 C 43.859375 55.489746 43.519287 53.811035 43.359375 51.970703 C 43.099365 51.730957 42.849365 51.480469 42.609375 51.230469 z M 56.519531 51.240234 C 56.279541 51.490234 56.019775 51.740234 55.759766 51.980469 C 55.599854 53.820313 55.259766 55.489746 54.759766 56.919922 C 56.679932 57.539551 58.109131 57.560547 58.708984 57.070312 C 59.930176 56.023438 57.656982 52.637207 56.519531 51.240234 z M 45.650391 53.980469 C 45.810547 54.780273 46.000488 55.509766 46.230469 56.179688 C 47.181152 55.746094 47.524902 55.543457 47.669922 55.470703 C 46.960449 54.996582 46.267334 54.471191 45.650391 53.980469 z M 53.470703 53.990234 C 52.820801 54.510254 52.148926 55.000488 51.458984 55.470703 C 51.958984 55.740723 52.430664 55.969727 52.890625 56.179688 C 53.120606 55.520019 53.310791 54.780273 53.470703 53.990234 z M 49.570312 56.679688 C 48.871582 57.074219 48.141113 57.501465 47.009766 58.009766 C 47.548584 58.989746 48.448242 60.199219 49.560547 60.199219 C 50.430664 60.199219 51.349365 59.409668 52.109375 58.009766 C 51.269287 57.629883 50.420166 57.179687 49.570312 56.679688 z" fill="url(#paint0_linear)"/>
<defs>
<linearGradient id="paint0_linear" x1="1.92667" y1="4.65138e-07" x2="19.7024" y2="29.0178" gradientUnits="userSpaceOnUse">
<stop offset="0.259336" stop-color="#FFDB6E"/>
<stop offset="1" stop-color="#FFBC5E"/>
</linearGradient>
</defs>
</svg>