<svg fill="#FFFFFF" xmlns="http://www.w3.org/2000/svg"  viewBox="0 0 32 32" width="96px" height="96px"><path d="M 23 0 L 23 2.1992188 C 22.1 2.2992188 21.2 2.6992188 20.5 3.1992188 L 19 1.6992188 L 17.599609 3.0996094 L 19.099609 4.5 C 18.599609 5.3 18.299609 6.1 18.099609 7 L 16 7 L 16 9 L 18.099609 9 C 18.199609 9.9 18.599609 10.8 19.099609 11.5 L 17.599609 13 L 19 14.400391 L 20.5 12.900391 C 21.3 13.400391 22.1 13.700391 23 13.900391 L 23 16 L 25 16 L 25 13.900391 C 25.9 13.800391 26.8 13.400391 27.5 12.900391 L 29 14.400391 L 30.400391 13 L 28.900391 11.5 C 29.400391 10.7 29.700391 9.9 29.900391 9 L 32 9 L 32 7 L 29.900391 7 C 29.800391 6.1 29.400391 5.2 28.900391 4.5 L 30.400391 3 L 29 1.5996094 L 27.5 3.0996094 C 26.7 2.5996094 25.9 2.2996094 25 2.0996094 L 25 0 L 23 0 z M 24 4 C 26.2 4 28 5.8 28 8 C 28 10.2 26.2 12 24 12 C 21.8 12 20 10.2 20 8 C 20 5.8 21.8 4 24 4 z M 6 6 C 4.897 6 4 6.897 4 8 L 4 21 C 4 22.103 4.897 23 6 23 L 26 23 C 27.103 23 28 22.103 28 21 L 28 17.162109 C 27.365 17.440109 26.697953 17.657828 26.001953 17.798828 L 26.001953 19 L 6 19 L 6 8 L 14 8 C 14 7.315 14.070172 6.646 14.201172 6 L 6 6 z M 24 6 C 22.9 6 22 6.9 22 8 C 22 9.1 22.9 10 24 10 C 25.1 10 26 9.1 26 8 C 26 6.9 25.1 6 24 6 z M 16 20 C 16.552 20 17 20.448 17 21 C 17 21.552 16.552 22 16 22 C 15.448 22 15 21.552 15 21 C 15 20.448 15.448 20 16 20 z M 14.160156 24 L 14.066406 24.599609 C 13.961406 25.262609 13.38975 25.75 12.71875 25.75 L 11 25.75 L 11 27 L 21 27 L 21 25.75 L 19.28125 25.75 C 18.61025 25.75 18.038594 25.262609 17.933594 24.599609 L 17.837891 24 L 14.160156 24 z"/></svg>