<svg width="40" height="40" viewBox="0 0 150 125" fill="none" xmlns="http://www.w3.org/2000/svg">
<path fill-rule="evenodd" clip-rule="evenodd" d="M114 1H14C6.8 1 1 6.8 1 14v10 4c0 1.7 1.3 3 3 3h120c1.7 0 3-1.3 3-3V14C127 6.8 121.2 1 114 1zM22 19h-4c-1.7 0-3-1.3-3-3s1.3-3 3-3h4c1.7 0 3 1.3 3 3S23.7 19 22 19zM38 19h-4c-1.7 0-3-1.3-3-3s1.3-3 3-3h4c1.7 0 3 1.3 3 3S39.7 19 38 19zM110 19H76c-1.7 0-3-1.3-3-3s1.3-3 3-3h34c1.7 0 3 1.3 3 3S111.7 19 110 19zM124 37H4c-1.7 0-3 1.3-3 3v74c0 7.2 5.8 13 13 13h100c7.2 0 13-5.8 13-13V40C127 38.3 125.7 37 124 37zM47.9 86.8c1.2 1.1 1.3 3 .2 4.2-.6.7-1.4 1-2.2 1-.7 0-1.4-.2-2-.8L31.8 80.2c-.6-.6-1-1.4-1-2.2s.4-1.7 1-2.2l12.1-11.1c1.2-1.1 3.1-1 4.2.2s1 3.1-.2 4.2L38.3 78 47.9 86.8zM75.1 56.9l-16.5 44.4c-.5 1.3-1.8 2.1-3.1 1.9-.3 0-.5-.1-.8-.2-1.6-.6-2.3-2.3-1.8-3.9l16.5-44.4c.6-1.6 2.3-2.3 3.9-1.8C74.9 53.6 75.7 55.3 75.1 56.9zM96.2 80.2L84.1 91.3c-.6.5-1.3.8-2 .8-.8 0-1.6-.3-2.2-1-1.1-1.2-1-3.1.2-4.2l9.6-8.8-9.6-8.8c-1.2-1.1-1.3-3-.2-4.2 1.1-1.2 3-1.3 4.2-.2l12.1 11.1c.6.6 1 1.4 1 2.2S96.8 79.7 96.2 80.2z" fill="url(#paint0_linear)"/>
<defs>
<linearGradient id="paint0_linear" x1="1.92667" y1="4.65138e-07" x2="19.7024" y2="29.0178" gradientUnits="userSpaceOnUse">
<stop offset="0.259336" stop-color="#FFDB6E"/>
<stop offset="1" stop-color="#FFBC5E"/>
</linearGradient>
</defs>
</svg>